<svg width="15" height="15" viewBox="0 0 15 15" fill="none" xmlns="http://www.w3.org/2000/svg">
<g id="move priority">
<path id="Vector" d="M0.849817 8.95604C0.398645 9.35414 0.398645 10.0576 0.849816 10.4557L5.37889 14.452C5.73377 14.7651 6.26623 14.7651 6.62111 14.452C7.04504 14.0779 7.04459 13.4167 6.62013 13.0433L5.81973 12.339C5.12753 11.7299 5.55831 10.5882 6.48031 10.5882H14C14.5523 10.5882 15 10.1405 15 9.58824V1C15 0.447716 14.5523 0 14 0C13.4477 0 13 0.447715 13 1V7.82353C13 8.37581 12.5523 8.82353 12 8.82353H6.48031C5.55831 8.82353 5.12753 7.68184 5.81973 7.07278L6.62013 6.3685C7.04459 5.99503 7.04504 5.33386 6.62111 4.9598C6.26623 4.64668 5.73377 4.64668 5.37889 4.9598L0.849817 8.95604Z" fill="#434343"/>
</g>
</svg>
